# File produced by Open Asset Import Library (http://www.assimp.sf.net)
# (assimp v4.1.0)

mtllib vyk4e6g8zc9z.mtl

# 61 vertex positions
v  -8.023799896240234 0 15.65229988098145
v  -8.023799896240234 0 -11.90670013427734
v  -2.118299961090088 0 -11.90670013427734
v  -2.118299961090088 0 15.65229988098145
v  -2.473599910736084 47.24409866333008 15.65229988098145
v  -2.473599910736084 49.56420135498047 1.87279999256134
v  -7.668499946594238 49.56420135498047 1.87279999256134
v  -7.668499946594238 47.24409866333008 15.65229988098145
v  3.015399932861328 0 20.7859001159668
v  3.015399932861328 4.028200149536133 20.7859001159668
v  -12.80210018157959 4.028200149536133 20.7859001159668
v  -12.80210018157959 0 20.7859001159668
v  3.015399932861328 0 -16.68510055541992
v  3.015399932861328 4.028200149536133 -16.68510055541992
v  -12.80210018157959 0 -17.0403995513916
v  -12.80210018157959 4.028200149536133 -17.0403995513916
v  2.660000085830688 4.028200149536133 -17.0403995513916
v  2.660000085830688 0 -17.0403995513916
v  -13.15740013122559 0 20.43059921264648
v  -13.15740013122559 4.028200149536133 20.43059921264648
v  -13.15740013122559 4.028200149536133 -16.68510055541992
v  -13.15740013122559 0 -16.68510055541992
v  -7.668499946594238 4.383600234985352 15.65229988098145
v  -2.473599910736084 4.383600234985352 15.65229988098145
v  -2.118299961090088 49.20389938354492 1.87279999256134
v  -2.118299961090088 46.94359970092773 15.29699993133545
v  -2.118299961090088 4.383600234985352 15.29699993133545
v  -2.118299961090088 4.383600234985352 -11.55140018463135
v  -2.118299961090088 46.94359970092773 -11.55140018463135
v  -7.668499946594238 47.24409866333008 -11.90670013427734
v  -2.473599910736084 47.24409866333008 -11.90670013427734
v  -2.473599910736084 4.383600234985352 -11.90670013427734
v  -7.668499946594238 4.383600234985352 -11.90670013427734
v  -6.580699920654297 47.06940078735352 1.87279999256134
v  -6.580699920654297 45.16350173950195 -9.446599960327148
v  -6.580699920654297 6.843699932098389 -9.446599960327148
v  -6.580699920654297 6.843699932098389 13.19209957122803
v  -6.580699920654297 45.16350173950195 13.19209957122803
v  -12.90620040893555 0 -16.78910064697266
v  -12.90620040893555 0 20.53470039367676
v  2.764100074768066 0 -16.78910064697266
v  -8.274999618530273 4.383600234985352 15.90349960327148
v  -12.90620040893555 4.383600234985352 20.53470039367676
v  2.764100074768066 4.383600234985352 20.53470039367676
v  -1.866999983787537 4.383600234985352 15.90349960327148
v  -8.023799896240234 4.383600234985352 15.29699993133545
v  -8.023799896240234 4.383600234985352 -11.55140018463135
v  -8.274999618530273 4.383600234985352 -12.15799999237061
v  -12.90620040893555 4.383600234985352 -16.78910064697266
v  -1.866999983787537 4.383600234985352 -12.15799999237061
v  2.764100074768066 4.383600234985352 -16.78910064697266
v  -8.023799896240234 49.20890045166016 1.87279999256134
v  -8.023799896240234 47.01470184326172 -11.63539981842041
v  -8.023799896240234 45.16350173950195 -9.446599960327148
v  -8.023799896240234 47.06940078735352 1.87279999256134
v  -8.023799896240234 4.634799957275391 -11.6555004119873
v  -8.023799896240234 6.843699932098389 -9.446599960327148
v  -8.023799896240234 4.634799957275391 15.40110015869141
v  -8.023799896240234 6.843699932098389 13.19209957122803
v  -8.023799896240234 47.01470184326172 15.38099956512451
v  -8.023799896240234 45.16350173950195 13.19209957122803

# 142 UV coordinates
vt 0.3722000122070312 0.8014000058174133 0
vt 0.06689999997615814 0.8014000058174133 0
vt 0.06689999997615814 0.7360000014305115 0
vt 0.3722000122070312 0.7360000014305115 0
vt 0.0706000030040741 0.5465999841690063 0
vt 0.2232999950647354 0.5465999841690063 0
vt 0.2232999950647354 0.604200005531311 0
vt 0.0706000030040741 0.604200005531311 0
vt 0.2497999966144562 0.4896000027656555 0
vt 0.2497999966144562 0.5342000126838684 0
vt 0.07450000196695328 0.5342000126838684 0
vt 0.07450000196695328 0.4896000027656555 0
vt 0.01119999960064888 0.9409000277519226 0
vt 0.01119999960064888 0.8962000012397766 0
vt 0.4262999892234802 0.8962000012397766 0
vt 0.4262999892234802 0.9409000277519226 0
vt 0.2458000034093857 0.4325000047683716 0
vt 0.2458000034093857 0.4771000146865845 0
vt 0.07450000196695328 0.4771000146865845 0
vt 0.07450000196695328 0.4325000047683716 0
vt 0.5418000221252441 0.6014999747276306 0
vt 0.5418000221252441 0.5569000244140625 0
vt 0.9528999924659729 0.5569000244140625 0
vt 0.9528999924659729 0.6014999747276306 0
vt 0.9379000067710876 0.6830999851226807 0
vt 0.9379000067710876 0.7405999898910522 0
vt 0.4630999863147736 0.7405999898910522 0
vt 0.4630999863147736 0.6830999851226807 0
vt 0.5065000057220459 0.1626999974250793 0
vt 0.4814999997615814 0.3113999962806702 0
vt 0.009999999776482582 0.3113999962806702 0
vt 0.009999999776482582 0.01389999967068434 0
vt 0.4814999997615814 0.01389999967068434 0
vt 0.9379000067710876 0.7825000286102295 0
vt 0.9379000067710876 0.8399999737739563 0
vt 0.4630999863147736 0.8399999737739563 0
vt 0.4630999863147736 0.7825000286102295 0
vt 0.9861999750137329 0.1353999972343445 0
vt 0.9650999903678894 0.2608000040054321 0
vt 0.5404999852180481 0.2608000040054321 0
vt 0.5404999852180481 0.009999999776482582 0
vt 0.9650999903678894 0.009999999776482582 0
vt 0.4250999987125397 0.8582999706268311 0
vt 0.01389999967068434 0.8582999706268311 0
vt 0.0127999996766448 0.8554999828338623 0
vt 0.4262999892234802 0.8554999828338623 0
vt 0.4291000068187714 0.679099977016449 0
vt 0.4291000068187714 0.8543999791145325 0
vt 0.0127999996766448 0.6819000244140625 0
vt 0.01389999967068434 0.679099977016449 0
vt 0.009999999776482582 0.8543999791145325 0
vt 0.009999999776482582 0.6830999851226807 0
vt 0.5946999788284302 0.4034000039100647 0
vt 0.5946999788284302 0.460999995470047 0
vt 0.5918999910354614 0.4677000045776367 0
vt 0.5406000018119812 0.5189999938011169 0
vt 0.5406000018119812 0.3454000055789948 0
vt 0.5918999910354614 0.396699994802475 0
vt 0.5985999703407288 0.4648999869823456 0
vt 0.8960999846458435 0.4648999869823456 0
vt 0.9028000235557556 0.4677000045776367 0
vt 0.9541000127792358 0.5189999938011169 0
vt 0.8999999761581421 0.460999995470047 0
vt 0.8999999761581421 0.4034000039100647 0
vt 0.9028000235557556 0.396699994802475 0
vt 0.9541000127792358 0.3454000055789948 0
vt 0.8960999846458435 0.3995000123977661 0
vt 0.5985999703407288 0.3995000123977661 0
vt 0.375900000333786 0.5465999841690063 0
vt 0.375900000333786 0.604200005531311 0
vt 0.506600022315979 0.4952999949455261 0
vt 0.4823000133037567 0.6449000239372253 0
vt 0.4618000090122223 0.6207000017166138 0
vt 0.4828999936580658 0.4952999949455261 0
vt 0.0127999996766448 0.6450999975204468 0
vt 0.03730000182986259 0.6207000017166138 0
vt 0.009999999776482582 0.6439999938011169 0
vt 0.009999999776482582 0.3465000092983246 0
vt 0.0127999996766448 0.3454000055789948 0
vt 0.03730000182986259 0.3698999881744385 0
vt 0.4823000133037567 0.3456000089645386 0
vt 0.4618000090122223 0.3698999881744385 0
vt 0.5885000228881836 0.9399999976158142 0
vt 0.4630999863147736 0.9399999976158142 0
vt 0.4630999863147736 0.9240000247955322 0
vt 0.5885000228881836 0.9240000247955322 0
vt 0.8876000046730042 0.8899999856948853 0
vt 0.4630999863147736 0.8899999856948853 0
vt 0.4630999863147736 0.8740000128746033 0
vt 0.8876000046730042 0.8740000128746033 0
vt 0.7914000153541565 0.6430000066757202 0
vt 0.5406000018119812 0.6430000066757202 0
vt 0.5406000018119812 0.6270999908447266 0
vt 0.7914000153541565 0.6270999908447266 0
vt 0.5404999852180481 0.2948000133037567 0
vt 0.9650999903678894 0.2948000133037567 0
vt 0.9650999903678894 0.3107999861240387 0
vt 0.5404999852180481 0.3107999861240387 0
vt 0.7139000296592712 0.9399999976158142 0
vt 0.7139000296592712 0.9240000247955322 0
vt 0.5975000262260437 0.4648999869823456 0
vt 0.8971999883651733 0.4648999869823456 0
vt 0.009999999776482582 0.9714999794960022 0
vt 0.01400000043213367 0.9664000272750854 0
vt 0.1636999994516373 0.9843999743461609 0
vt 0.1636999994516373 0.9900000095367432 0
vt 0.2232999950647354 0.6080999970436096 0
vt 0.3729000091552734 0.6080999970436096 0
vt 0.4657999873161316 0.7445999979972839 0
vt 0.9352999925613403 0.7445999979972839 0
vt 0.4630999863147736 0.679099977016449 0
vt 0.9345999956130981 0.679099977016449 0
vt 0.009999999776482582 0.009999999776482582 0
vt 0.4848000109195709 0.009999999776482582 0
vt 0.9352999925613403 0.7785999774932861 0
vt 0.4657999873161316 0.7785999774932861 0
vt 0.3093999922275543 0.9667999744415283 0
vt 0.3131999969482422 0.9718999862670898 0
vt 0.07360000163316727 0.6080999970436096 0
vt 0.609499990940094 0.4474999904632568 0
vt 0.6067000031471252 0.4515999853610992 0
vt 0.6039000153541565 0.4474999904632568 0
vt 0.6980999708175659 0.4492999911308289 0
vt 0.6952999830245972 0.4533999860286713 0
vt 0.6924999952316284 0.4492999911308289 0
vt 0.8205000162124634 0.4474999904632568 0
vt 0.8177000284194946 0.4515999853610992 0
vt 0.8148999810218811 0.4474999904632568 0
vt 0.0706000030040741 0.4325000047683716 0
vt 0.0706000030040741 0.4771000146865845 0
vt 0.2497999966144562 0.4325000047683716 0
vt 0.2497999966144562 0.4771000146865845 0
vt 0.0706000030040741 0.5342000126838684 0
vt 0.0706000030040741 0.4896000027656555 0
vt 0.2469999939203262 0.538100004196167 0
vt 0.07339999824762344 0.538100004196167 0
vt 0.5406000018119812 0.5529999732971191 0
vt 0.9541000127792358 0.5529999732971191 0
vt 0.2469999939203262 0.4810999929904938 0
vt 0.07339999824762344 0.4810999929904938 0
vt 0.009999999776482582 0.892300009727478 0
vt 0.4235000014305115 0.892300009727478 0

# 29 vertex normals
vn 0 -1 0
vn 0 0.9861000180244446 0.1659999936819077
vn 0 1 0
vn 0 0 1
vn 1 0 0
vn 0 0 -1
vn -1 0 0
vn 0 0.9861000180244446 -0.1659999936819077
vn 0 -0.9861000180244446 0.1659999936819077
vn 0 -0.9861000180244446 -0.1659999936819077
vn -0.301499992609024 0.9045000076293945 0.301499992609024
vn -0.301499992609024 0.9045000076293945 -0.301499992609024
vn 0.707099974155426 0.6973000168800354 0.1173999980092049
vn -0.6581000089645386 0.7427999973297119 -0.1229000017046928
vn -0.5924000144004822 0.000199999994947575 0.8055999875068665
vn 0.707099974155426 0 0.707099974155426
vn 0.707099974155426 0 -0.707099974155426
vn -0.5924000144004822 0.000199999994947575 -0.8055999875068665
vn 0.707099974155426 0.6973000168800354 -0.1173999980092049
vn -0.6581000089645386 0.7427999973297119 0.1229000017046928
vn -0.678600013256073 0.2811000049114227 0.678600013256073
vn -0.678600013256073 0.2811000049114227 -0.678600013256073
vn 0.678600013256073 0.2811000049114227 -0.678600013256073
vn -0.707099974155426 0 -0.707099974155426
vn -0.707099974155426 0 0.707099974155426
vn 0 0.5774000287055969 0.8165000081062317
vn -0.8165000081062317 0.5774000287055969 0
vn 0 0.5774000287055969 -0.8165000081062317
vn 0.8165000081062317 0.5774000287055969 0

# Mesh 'Box001' with 54 faces
g Box001
usemtl DefaultMaterial
f  1/1/1 2/2/1 3/3/1 4/4/1
f  5/5/2 6/6/3 7/7/3 8/8/2
f  9/9/4 10/10/4 11/11/4 12/12/4
f  13/13/5 14/14/5 10/15/5 9/16/5
f  15/17/6 16/18/6 17/19/6 18/20/6
f  19/21/7 20/22/7 21/23/7 22/24/7
f  5/25/4 8/26/4 23/27/4 24/28/4
f  25/29/5 26/30/5 27/31/5 28/32/5 29/33/5
f  30/34/6 31/35/6 32/36/6 33/37/6
f  34/38/7 35/39/7 36/40/7 37/41/7 38/42/7
f  19/43/1 22/44/1 39/45/1 2/2/1 1/1/1 40/46/1
f  9/47/1 12/48/1 40/46/1 1/1/1 4/4/1
f  3/3/1 41/49/1 13/50/1 9/47/1 4/4/1
f  15/51/1 18/52/1 41/49/1 3/3/1 2/2/1 39/45/1
f  24/53/3 23/54/3 42/55/3 43/56/3 44/57/3 45/58/3
f  46/59/3 47/60/3 48/61/3 49/62/3 43/56/3 42/55/3
f  33/63/3 32/64/3 50/65/3 51/66/3 49/62/3 48/61/3
f  28/67/3 27/68/3 45/58/3 44/57/3 51/66/3 50/65/3
f  31/69/8 30/70/8 7/7/3 6/6/3
f  52/71/7 53/72/7 54/73/7 55/74/7
f  53/72/7 56/75/7 57/76/7 54/73/7
f  47/77/7 46/78/7 58/79/7 59/80/7 57/76/7 56/75/7
f  58/79/7 60/81/7 61/82/7 59/80/7
f  60/81/7 52/71/7 55/74/7 61/82/7
f  55/83/9 54/84/9 35/85/9 34/86/9
f  54/87/4 57/88/4 36/89/4 35/90/4
f  57/91/3 59/92/3 37/93/3 36/94/3
f  59/95/6 61/96/6 38/97/6 37/98/6
f  61/99/10 55/83/10 34/86/10 38/100/10
f  24/53/3 45/58/3 27/68/3
f  58/101/11 46/59/11 42/55/11 23/54/11
f  28/67/3 50/65/3 32/64/3
f  33/63/12 48/61/12 47/60/12 56/102/12
f  5/103/13 26/104/13 25/105/13 6/106/13
f  52/107/14 7/7/14 30/70/14 53/108/14
f  58/109/15 23/27/15 8/26/15 60/110/15
f  24/28/16 27/111/16 26/112/16 5/25/16
f  28/32/17 32/113/17 31/114/17 29/33/17
f  53/115/18 30/34/18 33/37/18 56/116/18
f  6/106/19 25/105/19 29/117/19 31/118/19
f  60/119/20 8/8/20 7/7/20 52/107/20
f  39/45/1 22/44/1 15/51/1
f  40/46/1 12/48/1 19/43/1
f  41/49/1 18/52/1 13/50/1
f  11/120/21 43/121/21 20/122/21
f  21/123/22 49/124/22 16/125/22
f  17/126/23 51/127/23 14/128/23
f  13/129/17 18/20/17 17/19/17 14/130/17
f  15/17/24 22/131/24 21/132/24 16/18/24
f  11/11/25 20/133/25 19/134/25 12/12/25
f  10/10/26 44/135/26 43/136/26 11/11/26
f  20/22/27 43/137/27 49/138/27 21/23/27
f  16/18/28 49/139/28 51/140/28 17/19/28
f  14/14/29 51/141/29 44/142/29 10/15/29

